<svg xmlns="http://www.w3.org/2000/svg" width="26" height="26" viewBox="0 0 26 26">
  <path id="Path_140" data-name="Path 140" d="M16.3,8.5a1.3,1.3,0,0,0-2.6,0v.132A3.936,3.936,0,0,0,10.287,12.4,3.936,3.936,0,0,0,13.7,16.168v2.458a4.015,4.015,0,0,1-1.038-.652,1.3,1.3,0,0,0-1.831,1.846A5.526,5.526,0,0,0,12,20.679a6.312,6.312,0,0,0,1.7.672V21.5a1.3,1.3,0,1,0,2.6,0v-.132A3.936,3.936,0,0,0,19.712,17.6,3.936,3.936,0,0,0,16.3,13.832V11.314a2.22,2.22,0,0,1,.921.58A1.3,1.3,0,0,0,19.3,10.327h0a2.792,2.792,0,0,0-.326-.363,4.713,4.713,0,0,0-.8-.619,5.6,5.6,0,0,0-1.866-.72ZM2,15A13,13,0,1,1,15,28,13,13,0,0,1,2,15Z" transform="translate(-2 -2)" fill="#5c3d6a" fill-rule="evenodd"/>
</svg>
