<svg xmlns="http://www.w3.org/2000/svg" width="25.094" height="25.094" viewBox="0 0 25.094 25.094">
  <path id="event" d="M16.566,21.124a.69.69,0,0,1-.686-.71v-3.48a.67.67,0,0,1,.686-.686h3.48a.69.69,0,0,1,.71.686v3.48a.711.711,0,0,1-.71.71Zm3.48-4.191h-3.48v3.48h3.48ZM23.525,2.353a1.579,1.579,0,0,1,1.568,1.568v19.6a1.579,1.579,0,0,1-1.568,1.568H1.568A1.579,1.579,0,0,1,0,23.525V3.921A1.579,1.579,0,0,1,1.568,2.353H7.842V.784a.784.784,0,0,1,1.568,0V2.353h6.273V.784a.784.784,0,0,1,1.568,0V2.353ZM1.568,23.525H23.525V3.921H17.252v.784a.784.784,0,0,1-1.568,0V3.921H9.41v.784a.784.784,0,0,1-1.568,0V3.921H1.568Z" fill="#707070"/>
</svg>
